<mxfile host="app.diagrams.net" modified="2020-12-20T04:43:45.508Z" agent="5.0 (Macintosh; Intel Mac OS X 10_15_7) AppleWebKit/605.1.15 (KHTML, like Gecko) Version/14.0.1 Safari/605.1.15" etag="BcyCh5ZjOmqBsPjyy3wT" version="14.1.1" type="github">
  <diagram name="Page-1" id="5f0bae14-7c28-e335-631c-24af17079c00">
    <mxGraphModel dx="1094" dy="722" grid="1" gridSize="10" guides="1" tooltips="1" connect="1" arrows="1" fold="1" page="1" pageScale="1" pageWidth="1100" pageHeight="850" background="#ffffff" math="0" shadow="0">
      <root>
        <mxCell id="0" />
        <mxCell id="1" parent="0" />
        <mxCell id="j8hM9uPYV74POWVBPyUY-1" value="Pick - can only post once weekly" style="rounded=0;whiteSpace=wrap;html=1;align=center;" vertex="1" parent="1">
          <mxGeometry x="530" y="230" width="130" height="80" as="geometry" />
        </mxCell>
        <mxCell id="j8hM9uPYV74POWVBPyUY-2" value="Picks" style="rounded=0;whiteSpace=wrap;html=1;align=center;" vertex="1" parent="1">
          <mxGeometry x="350" y="230" width="130" height="80" as="geometry" />
        </mxCell>
        <mxCell id="j8hM9uPYV74POWVBPyUY-3" value="List - limit to 3 per pick" style="rounded=0;whiteSpace=wrap;html=1;align=center;" vertex="1" parent="1">
          <mxGeometry x="690" y="230" width="130" height="80" as="geometry" />
        </mxCell>
        <mxCell id="j8hM9uPYV74POWVBPyUY-4" value="Link Item - limit to 3 per list&lt;br&gt;- Title&lt;br&gt;- Comments (200 char limit)&lt;br&gt;- URL" style="rounded=0;whiteSpace=wrap;html=1;align=center;" vertex="1" parent="1">
          <mxGeometry x="840" y="230" width="130" height="80" as="geometry" />
        </mxCell>
      </root>
    </mxGraphModel>
  </diagram>
</mxfile>
